<?xml version="1.0" encoding="iso-8859-1"?>
<!-- Generator: Adobe Illustrator 19.0.0, SVG Export Plug-In . SVG Version: 6.00 Build 0)  -->
<svg xmlns="http://www.w3.org/2000/svg" xmlns:xlink="http://www.w3.org/1999/xlink" version="1.1" id="Layer_1" x="0px" y="0px" viewBox="0 0 512 512" style="enable-background:new 0 0 512 512;" xml:space="preserve" width="512" height="512">
<g>
	<g>
		<g>
			<g>
				<g>
					<path style="fill:#D6D6D6;" d="M346.572,82.709c-1.614,0-3.24-0.51-4.621-1.567l-85.945-65.78l-82.545,65.691       c-3.289,2.617-8.078,2.073-10.696-1.216s-2.073-8.077,1.216-10.695l82.931-65.997c5.379-4.183,12.798-4.184,18.11-0.053       l86.182,65.961c3.338,2.555,3.973,7.333,1.418,10.671C351.123,81.681,348.86,82.709,346.572,82.709z M255.722,15.145       c0.001,0.001,0.003,0.002,0.004,0.003L255.722,15.145z"/>
				</g>
				<g>
					<g>
						<path style="fill:#B7825A;" d="M416.869,291.182H95.131c-4.439,0-8.037-3.598-8.037-8.037V74.699        c0-4.439,3.598-8.037,8.037-8.037h321.737c4.439,0,8.037,3.598,8.037,8.037v208.446        C424.905,287.584,421.307,291.182,416.869,291.182z"/>
						<rect x="111.511" y="91.079" style="fill:#75CFF2;" width="288.977" height="175.687"/>
						<rect x="347.955" y="91.079" style="fill:#53B4E4;" width="52.534" height="175.686"/>
					</g>
					<g>
						<path style="fill:#1E4751;" d="M400.489,266.765l-66.268-100.12c-3.243-4.899-10.435-4.899-13.678,0l-66.268,100.12H400.489z"/>
						<path style="fill:#345863;" d="M197.683,136.574l-86.172,130.191h186.021l-86.172-130.191        C208.118,131.675,200.926,131.675,197.683,136.574z"/>
					</g>
				</g>
			</g>
			<g>
				<g>
					<g>
						<path style="fill:#F2CA20;" d="M256,402.144c-81.429,0-158.259-14.888-216.335-41.922c-3.811-1.774-5.462-6.302-3.688-10.113        c1.774-3.812,6.302-5.463,10.113-3.689c56.106,26.117,130.654,40.501,209.911,40.501s153.804-14.384,209.911-40.501        c3.811-1.774,8.338-0.123,10.113,3.689c1.774,3.811,0.123,8.339-3.688,10.113C414.259,387.256,337.429,402.144,256,402.144z"/>
					</g>
				</g>
			</g>
			<g>
				<g>
					<g>
						<g>
							<g>
								<g>
									<g>
										<g>
											<path style="fill:#D6D6D6;" d="M44.093,512H28.351c-3.44,0-6.23-2.789-6.23-6.23V337.1             c0-7.788,6.313-14.101,14.101-14.101h0c7.788,0,14.101,6.313,14.101,14.101V505.77C50.323,509.211,47.534,512,44.093,512             z"/>
											<circle style="fill:#F43B45;" cx="36.222" cy="307.376" r="18.003"/>
										</g>
									</g>
								</g>
							</g>
						</g>
					</g>
					<g>
						<g>
							<g>
								<g>
									<g>
										<g>
											<path style="fill:#D6D6D6;" d="M483.649,512h-15.743c-3.44,0-6.23-2.789-6.23-6.23V337.1             c0-7.788,6.313-14.101,14.101-14.101h0c7.788,0,14.101,6.313,14.101,14.101V505.77             C489.879,509.211,487.09,512,483.649,512z"/>
											<circle style="fill:#F43B45;" cx="475.778" cy="307.376" r="18.003"/>
										</g>
									</g>
								</g>
							</g>
						</g>
					</g>
				</g>
			</g>
		</g>
	</g>
</g>















</svg>
